<svg width="11" height="19" viewBox="0 0 11 19" fill="none" xmlns="http://www.w3.org/2000/svg">
<path fill-rule="evenodd" clip-rule="evenodd" d="M6 18.5H3C2.44772 18.5 2 18.0523 2 17.5V15.5C2 14.9477 2.44772 14.5 3 14.5H4V11.293C1.6915 10.64 0 8.01755 0 6C0 2.46243 2.46243 0.5 5.5 0.5C8.53757 0.5 11 2.96243 11 6C11 8.51755 9.30851 10.64 7 11.293V17.5C7 18.0523 6.55228 18.5 6 18.5ZM5.5 6.5C6.32843 6.5 7 5.82843 7 5C7 4.17157 6.32843 3.5 5.5 3.5C4.67157 3.5 4 4.17157 4 5C4 5.82843 4.67157 6.5 5.5 6.5Z" fill="#6D778B"/>
</svg>
