<svg width="21" height="21" viewBox="0 0 21 21" fill="none" xmlns="http://www.w3.org/2000/svg">
<path fill-rule="evenodd" clip-rule="evenodd" d="M19 9V12C19 12.7403 18.5978 13.3866 18 13.7324V16C18 17.1046 17.1046 18 16 18H4C2.89543 18 2 17.1046 2 16V5C2 3.89543 2.89543 3 4 3H16C17.1046 3 18 3.89543 18 5V7.26756C18.5978 7.61337 19 8.25972 19 9ZM6 6C5.44772 6 5 6.44772 5 7C5 7.55228 5.44772 8 6 8H14C14.5523 8 15 7.55228 15 7C15 6.44772 14.5523 6 14 6H6ZM14 12C14.5523 12 15 11.5523 15 11C15 10.4477 14.5523 10 14 10C13.4477 10 13 10.4477 13 11C13 11.5523 13.4477 12 14 12Z" fill="white"/>
</svg>
