<?xml version="1.0" encoding="utf-8"?>
<!-- Generator: Adobe Illustrator 26.0.2, SVG Export Plug-In . SVG Version: 6.00 Build 0)  -->
<svg version="1.1" id="Layer_1" xmlns="http://www.w3.org/2000/svg" xmlns:xlink="http://www.w3.org/1999/xlink" x="0px" y="0px"
	 viewBox="0 0 4280 1990" style="enable-background:new 0 0 4280 1990;" xml:space="preserve">
<style type="text/css">
	.st0{fill:none;stroke:#A6A8AA;stroke-width:6;stroke-miterlimit:10;stroke-dasharray:12,12;}
	.st1{fill:url(#SVGID_1_);}
	.st2{fill:url(#SVGID_00000158028829968471764970000012879724708673290404_);}
	.st3{fill:url(#SVGID_00000156545576778935695700000016702511430872924320_);}
	.st4{fill:url(#SVGID_00000086693129087189706510000005410765437706433719_);}
	.st5{fill:url(#SVGID_00000042716553787427456590000006832456973106614146_);}
	.st6{fill:#E8E7E7;}
	.st7{fill:none;stroke:#616160;stroke-width:4.125;stroke-miterlimit:10;}
	.st8{fill:#616160;}
	.st9{fill:none;stroke:#616160;stroke-width:3.8905;stroke-miterlimit:10;}
	.st10{fill:none;stroke:#616160;stroke-width:5;stroke-miterlimit:10;}
	.st11{fill:none;stroke:#A2A1A1;stroke-width:2;stroke-miterlimit:10;}
	.st12{fill:#A6A8AA;}
	.st13{fill:url(#SVGID_00000176011936945581537090000014925317106575805337_);}
	.st14{fill:url(#SVGID_00000053533413433465742970000001906071517361480334_);}
	.st15{fill:url(#SVGID_00000097464139969641368410000010243989594525456795_);}
	.st16{fill:url(#SVGID_00000089569195627799208940000013444324975888104070_);}
	.st17{fill:url(#SVGID_00000025430689355795731240000012375647046664143285_);}
	.st18{fill:#0CA6B0;}
	.st19{font-family:'Montserrat-Bold';}
	.st20{font-size:58.1836px;}
	.st21{font-size:37px;}
	.st22{fill:#010000;}
	.st23{font-family:'Montserrat-Regular';}
	.st24{font-size:70.7371px;}
	.st25{font-size:76.8217px;}
	.st26{font-family:'ArialMT';}
	.st27{font-size:47.2394px;}
</style>
<line class="st0" x1="-3927.6" y1="892.1" x2="-3927.6" y2="1662"/>
<line class="st0" x1="-3123.4" y1="892.1" x2="-3123.4" y2="1662"/>
<line class="st0" x1="-1542.8" y1="892.1" x2="-1542.8" y2="1662"/>
<line class="st0" x1="-2332.6" y1="892.1" x2="-2332.6" y2="1662"/>
<linearGradient id="SVGID_1_" gradientUnits="userSpaceOnUse" x1="-4375.1938" y1="801.1653" x2="-1301.5925" y2="801.1653">
	<stop  offset="0" style="stop-color:#B534F6"/>
	<stop  offset="1" style="stop-color:#0CA6B0"/>
</linearGradient>
<path class="st1" d="M-3744.7,909.4h-365.9c-45.3,0-82-36.7-82-82v-52.6c0-45.3,36.7-82,82-82h365.9c45.3,0,82,36.7,82,82v52.6
	C-3662.7,872.7-3699.4,909.4-3744.7,909.4z"/>
<linearGradient id="SVGID_00000099631022869813440450000012707187962900732310_" gradientUnits="userSpaceOnUse" x1="-4384.1743" y1="801.1653" x2="-1310.5732" y2="801.1653">
	<stop  offset="0" style="stop-color:#B534F6"/>
	<stop  offset="1" style="stop-color:#0CA6B0"/>
</linearGradient>
<path style="fill:url(#SVGID_00000099631022869813440450000012707187962900732310_);" d="M-2940.4,909.4h-365.9
	c-45.3,0-82-36.7-82-82v-52.6c0-45.3,36.7-82,82-82h365.9c45.3,0,82,36.7,82,82v52.6C-2858.4,872.7-2895.1,909.4-2940.4,909.4z"/>
<linearGradient id="SVGID_00000008852020392966762170000003014892647630994061_" gradientUnits="userSpaceOnUse" x1="-4385.5757" y1="801.1653" x2="-1311.9746" y2="801.1653">
	<stop  offset="0" style="stop-color:#B534F6"/>
	<stop  offset="1" style="stop-color:#0CA6B0"/>
</linearGradient>
<path style="fill:url(#SVGID_00000008852020392966762170000003014892647630994061_);" d="M-2149.6,909.4h-365.9
	c-45.3,0-82-36.7-82-82v-52.6c0-45.3,36.7-82,82-82h365.9c45.3,0,82,36.7,82,82v52.6C-2067.7,872.7-2104.4,909.4-2149.6,909.4z"/>
<linearGradient id="SVGID_00000054958005808205027660000015836286320534878366_" gradientUnits="userSpaceOnUse" x1="-4379.2212" y1="801.1653" x2="-1305.6202" y2="801.1653">
	<stop  offset="0" style="stop-color:#B534F6"/>
	<stop  offset="1" style="stop-color:#0CA6B0"/>
</linearGradient>
<path style="fill:url(#SVGID_00000054958005808205027660000015836286320534878366_);" d="M-1359.8,909.4h-365.9
	c-45.3,0-82-36.7-82-82v-52.6c0-45.3,36.7-82,82-82h365.9c45.3,0,82,36.7,82,82v52.6C-1277.9,872.7-1314.6,909.4-1359.8,909.4z"/>
<linearGradient id="SVGID_00000158745432171418080850000009232399819845434755_" gradientUnits="userSpaceOnUse" x1="-979.5915" y1="801.1653" x2="-449.7445" y2="801.1653">
	<stop  offset="0" style="stop-color:#0CA6B0"/>
	<stop  offset="1" style="stop-color:#0CC1B0"/>
</linearGradient>
<path style="fill:url(#SVGID_00000158745432171418080850000009232399819845434755_);" d="M-531.7,909.4h-365.9
	c-45.3,0-82-36.7-82-82v-52.6c0-45.3,36.7-82,82-82h365.9c45.3,0,82,36.7,82,82v52.6C-449.7,872.7-486.4,909.4-531.7,909.4z"/>
<path class="st6" d="M-531.7,1262.7h-365.9c-45.3,0-82-36.7-82-82v-52.6c0-45.3,36.7-82,82-82h365.9c45.3,0,82,36.7,82,82v52.6
	C-449.7,1226-486.4,1262.7-531.7,1262.7z"/>
<text transform="matrix(1 0 0 1 -3413.7429 499.1531)"><tspan x="0" y="0" class="st18 st19 st20">Voting Active </tspan><tspan x="431.5" y="0" class="st18 st19 st21">(3 Days)</tspan></text>
<text transform="matrix(1 0 0 1 -2517.1599 497.4584)" class="st18 st19 st20">Voting Ends</text>
<g>
	<text transform="matrix(0.95 0 0 1 -4072.417 823.8101)" class="st22 st23 st24">Pending</text>
</g>
<g>
	<text transform="matrix(0.95 0 0 1 -3227.5649 824.1636)" class="st22 st23 st24">Active</text>
</g>
<g>
	<text transform="matrix(0.95 0 0 1 -1679.5811 824.1636)" class="st22 st23 st24">Queued</text>
</g>
<g>
	<text transform="matrix(0.95 0 0 1 -2520.155 824.1636)" class="st22 st23 st24">Succeeded</text>
</g>
<g>
	<g>
		<g>
			<g>
				<line class="st7" x1="-3613.2" y1="802.5" x2="-3581.6" y2="802.5"/>
			</g>
			<g>
				<line class="st7" x1="-3587.4" y1="802.5" x2="-3555.8" y2="802.5"/>
			</g>
			<g>
				<line class="st7" x1="-3561.5" y1="802.5" x2="-3530" y2="802.5"/>
			</g>
			<g>
				<line class="st7" x1="-3535.7" y1="802.5" x2="-3504.1" y2="802.5"/>
			</g>
			<g>
				<line class="st7" x1="-3489.8" y1="802.5" x2="-3509.9" y2="802.5"/>
				<polygon class="st8" points="-3481.1,802.5 -3507,819 -3507,786 				"/>
			</g>
		</g>
	</g>
</g>
<g>
	<g>
		<g>
			<g>
				<line class="st7" x1="-2804.3" y1="802.5" x2="-2772.7" y2="802.5"/>
			</g>
			<g>
				<line class="st7" x1="-2778.4" y1="802.5" x2="-2746.9" y2="802.5"/>
			</g>
			<g>
				<line class="st7" x1="-2752.6" y1="802.5" x2="-2721" y2="802.5"/>
			</g>
			<g>
				<line class="st7" x1="-2726.8" y1="802.5" x2="-2695.2" y2="802.5"/>
			</g>
			<g>
				<line class="st7" x1="-2680.8" y1="802.5" x2="-2700.9" y2="802.5"/>
				<polygon class="st8" points="-2672.2,802.5 -2698,819 -2698,786 				"/>
			</g>
		</g>
	</g>
</g>
<g>
	<g>
		<g>
			<g>
				<line class="st9" x1="-990.5" y1="1049.2" x2="-979.6" y2="1075.1"/>
			</g>
			<g>
				<line class="st9" x1="-981.5" y1="1070.4" x2="-970.6" y2="1096.2"/>
			</g>
			<g>
				<line class="st9" x1="-972.6" y1="1091.5" x2="-961.7" y2="1117.3"/>
			</g>
			<g>
				<line class="st9" x1="-963.6" y1="1112.6" x2="-952.7" y2="1138.5"/>
			</g>
			<g>
				<line class="st9" x1="-954.7" y1="1133.8" x2="-943.8" y2="1159.6"/>
			</g>
			<g>
				<line class="st9" x1="-938.8" y1="1171.4" x2="-945.8" y2="1154.9"/>
				<polygon class="st8" points="-935.8,1178.4 -959.1,1163.4 -930.4,1151.2 				"/>
			</g>
		</g>
	</g>
</g>
<g>
	<polyline class="st10" points="-940.8,1170.1 -1080,831.2 -1187.7,831.2 	"/>
</g>
<g>
	<g>
		<g>
			<line class="st7" x1="-1996.7" y1="802.5" x2="-1964.9" y2="802.5"/>
		</g>
		<g>
			<line class="st7" x1="-1970.7" y1="802.5" x2="-1938.9" y2="802.5"/>
		</g>
		<g>
			<line class="st7" x1="-1944.7" y1="802.5" x2="-1912.9" y2="802.5"/>
		</g>
		<g>
			<line class="st7" x1="-1918.7" y1="802.5" x2="-1887" y2="802.5"/>
		</g>
		<g>
			<line class="st7" x1="-1872.5" y1="802.5" x2="-1892.7" y2="802.5"/>
			<polygon class="st8" points="-1863.9,802.5 -1889.8,819 -1889.8,786 			"/>
		</g>
	</g>
</g>
<g>
	<g>
		<g>
			<line class="st7" x1="-1186.4" y1="802.5" x2="-1154.6" y2="802.5"/>
		</g>
		<g>
			<line class="st7" x1="-1160.4" y1="802.5" x2="-1128.7" y2="802.5"/>
		</g>
		<g>
			<line class="st7" x1="-1134.4" y1="802.5" x2="-1102.7" y2="802.5"/>
		</g>
		<g>
			<line class="st7" x1="-1108.4" y1="802.5" x2="-1076.7" y2="802.5"/>
		</g>
		<g>
			<line class="st7" x1="-1062.2" y1="802.5" x2="-1082.4" y2="802.5"/>
			<polygon class="st8" points="-1053.6,802.5 -1079.6,819 -1079.6,786 			"/>
		</g>
	</g>
</g>
<g>
	<text transform="matrix(0.95 0 0 1 -843.4536 1185.6445)" class="st22 st23 st24">Expired</text>
</g>
<g>
	<text transform="matrix(0.95 0 0 1 -873.6262 822.1145)" class="st22 st23 st24">Executed</text>
</g>
<text transform="matrix(1 0 0 1 -4189.6069 497.4589)" class="st18 st19 st20">Proposal Created</text>
<text transform="matrix(1 0 0 1 -1466.3589 513.8408)"><tspan x="0" y="0" class="st18 st19 st25">Timelock </tspan><tspan x="390.9" y="0" class="st18 st19 st21">(2+Days)</tspan></text>
<g>
	<path class="st11" d="M-3534.7,365.1c-0.2,105.8-0.2,184.5,0,290.2"/>
	<path class="st11" d="M-2729.5,365.1c-0.4,105.8-0.4,184.5,0,290.2"/>
	<path class="st11" d="M-1904.9,365.1c-0.4,105.8-0.4,184.5,0,290.2"/>
</g>
<g>
	<path class="st11" d="M-3534.7,970c-0.2,105.8-0.2,184.5,0,290.2"/>
	<path class="st11" d="M-2729.5,970c-0.4,105.8-0.4,184.5,0,290.2"/>
	<path class="st11" d="M-1904.9,970c-0.4,105.8-0.4,184.5,0,290.2"/>
</g>
<line class="st0" x1="-714.7" y1="1262.7" x2="-714.7" y2="1595.1"/>
<path class="st6" d="M-2149.6,1293.9h-365.9c-45.3,0-82-36.7-82-82v-52.6c0-45.3,36.7-82,82-82h365.9c45.3,0,82,36.7,82,82v52.6
	C-2067.7,1257.2-2104.4,1293.9-2149.6,1293.9z"/>
<g>
	<text transform="matrix(0.95 0 0 1 -2488.874 1208.3003)" class="st22 st23 st24">Defeated</text>
</g>
<g>
	<g>
		<g>
			<g>
				<line class="st7" x1="-2634.9" y1="973.4" x2="-2622.9" y2="1002.4"/>
			</g>
			<g>
				<line class="st7" x1="-2625.1" y1="997.1" x2="-2613.1" y2="1026.2"/>
			</g>
			<g>
				<line class="st7" x1="-2615.3" y1="1020.9" x2="-2603.3" y2="1049.9"/>
			</g>
			<g>
				<line class="st7" x1="-2605.5" y1="1044.6" x2="-2593.4" y2="1073.7"/>
			</g>
			<g>
				<line class="st7" x1="-2595.6" y1="1068.4" x2="-2583.6" y2="1097.4"/>
			</g>
			<g>
				<line class="st7" x1="-2585.8" y1="1092.1" x2="-2573.8" y2="1121.2"/>
			</g>
			<g>
				<line class="st7" x1="-2576" y1="1115.9" x2="-2563.9" y2="1144.9"/>
			</g>
			<g>
				<line class="st7" x1="-2566.1" y1="1139.6" x2="-2554.1" y2="1168.7"/>
			</g>
			<g>
				<line class="st7" x1="-2548.6" y1="1181.8" x2="-2556.3" y2="1163.4"/>
				<polygon class="st8" points="-2545.4,1189.8 -2570.4,1172.3 -2540,1159.7 				"/>
			</g>
		</g>
	</g>
</g>
<g>
	<polyline class="st10" points="-2554.6,1170.1 -2693.8,831.2 -2801.5,831.2 	"/>
</g>
<g>
	<g>
		<path class="st6" d="M-3749.1,1692.1c0,9.8-5.2,17.8-11.6,17.8h-333.9c-6.4,0-11.6-8-11.6-17.8v-75.5c0-9.8,5.2-17.8,11.6-17.8
			h333.9c6.4,0,11.6,8,11.6,17.8V1692.1z"/>
	</g>
	<text transform="matrix(1 0 0 1 -4027.4346 1666.9539)" class="st26 st27">Canceled</text>
</g>
<g>
	<g>
		<path class="st6" d="M-2944.9,1692.1c0,9.8-5.2,17.8-11.6,17.8h-333.9c-6.4,0-11.6-8-11.6-17.8v-75.5c0-9.8,5.2-17.8,11.6-17.8
			h333.9c6.4,0,11.6,8,11.6,17.8V1692.1z"/>
	</g>
	<text transform="matrix(1 0 0 1 -3223.1702 1666.9539)" class="st26 st27">Canceled</text>
</g>
<g>
	<g>
		<path class="st6" d="M-2154.1,1692.1c0,9.8-5.2,17.8-11.6,17.8h-333.9c-6.4,0-11.6-8-11.6-17.8v-75.5c0-9.8,5.2-17.8,11.6-17.8
			h333.9c6.4,0,11.6,8,11.6,17.8V1692.1z"/>
	</g>
	<text transform="matrix(1 0 0 1 -2432.4006 1666.9539)" class="st26 st27">Canceled</text>
</g>
<g>
	<g>
		<path class="st6" d="M-1364.3,1692.1c0,9.8-5.2,17.8-11.5,17.8h-333.9c-6.4,0-11.6-8-11.6-17.8v-75.5c0-9.8,5.2-17.8,11.6-17.8
			h333.9c6.4,0,11.5,8,11.5,17.8V1692.1z"/>
	</g>
	<text transform="matrix(1 0 0 1 -1642.595 1666.9539)" class="st26 st27">Canceled</text>
</g>
<g>
	<g>
		<path class="st6" d="M-536.2,1692.1c0,9.8-5.2,17.8-11.5,17.8h-333.9c-6.4,0-11.6-8-11.6-17.8v-75.5c0-9.8,5.2-17.8,11.6-17.8
			h333.9c6.4,0,11.5,8,11.5,17.8V1692.1z"/>
	</g>
	<text transform="matrix(1 0 0 1 -814.4636 1666.9539)" class="st26 st27">Canceled</text>
</g>
<polygon class="st12" points="-3905.9,1580.9 -3927.6,1602.7 -3949.4,1580.9 "/>
<polygon class="st12" points="-3101.6,1581.7 -3123.4,1603.5 -3145.1,1581.7 "/>
<polygon class="st12" points="-2310.8,1587.9 -2332.6,1609.7 -2354.4,1587.9 "/>
<polygon class="st12" points="-1521,1587.9 -1542.8,1609.7 -1564.6,1587.9 "/>
<polygon class="st12" points="-692.9,1582 -714.7,1603.8 -736.4,1582 "/>
<line class="st0" x1="490.6" y1="892.1" x2="490.6" y2="1662"/>
<line class="st0" x1="1294.9" y1="892.1" x2="1294.9" y2="1662"/>
<line class="st0" x1="2875.5" y1="892.1" x2="2875.5" y2="1662"/>
<line class="st0" x1="2085.7" y1="892.1" x2="2085.7" y2="1662"/>
<linearGradient id="SVGID_00000105428263844014239210000003929777305043015091_" gradientUnits="userSpaceOnUse" x1="43.0663" y1="801.1653" x2="3116.6675" y2="801.1653">
	<stop  offset="0" style="stop-color:#B534F6"/>
	<stop  offset="1" style="stop-color:#0CA6B0"/>
</linearGradient>
<path style="fill:url(#SVGID_00000105428263844014239210000003929777305043015091_);" d="M673.6,909.4H307.6c-45.3,0-82-36.7-82-82
	v-52.6c0-45.3,36.7-82,82-82h365.9c45.3,0,82,36.7,82,82v52.6C755.5,872.7,718.9,909.4,673.6,909.4z"/>
<linearGradient id="SVGID_00000066517559732359686570000015087952440541990280_" gradientUnits="userSpaceOnUse" x1="34.0856" y1="801.1653" x2="3107.6868" y2="801.1653">
	<stop  offset="0" style="stop-color:#B534F6"/>
	<stop  offset="1" style="stop-color:#0CA6B0"/>
</linearGradient>
<path style="fill:url(#SVGID_00000066517559732359686570000015087952440541990280_);" d="M1477.9,909.4h-365.9
	c-45.3,0-82-36.7-82-82v-52.6c0-45.3,36.7-82,82-82h365.9c45.3,0,82,36.7,82,82v52.6C1559.8,872.7,1523.1,909.4,1477.9,909.4z"/>
<linearGradient id="SVGID_00000127022441764721442170000009999421795148236975_" gradientUnits="userSpaceOnUse" x1="32.6842" y1="801.1653" x2="3106.2854" y2="801.1653">
	<stop  offset="0" style="stop-color:#B534F6"/>
	<stop  offset="1" style="stop-color:#0CA6B0"/>
</linearGradient>
<path style="fill:url(#SVGID_00000127022441764721442170000009999421795148236975_);" d="M2268.6,909.4h-365.9
	c-45.3,0-82-36.7-82-82v-52.6c0-45.3,36.7-82,82-82h365.9c45.3,0,82,36.7,82,82v52.6C2350.6,872.7,2313.9,909.4,2268.6,909.4z"/>
<linearGradient id="SVGID_00000006706203185103729810000011006968635600861837_" gradientUnits="userSpaceOnUse" x1="39.0387" y1="801.1653" x2="3112.6399" y2="801.1653">
	<stop  offset="0" style="stop-color:#B534F6"/>
	<stop  offset="1" style="stop-color:#0CA6B0"/>
</linearGradient>
<path style="fill:url(#SVGID_00000006706203185103729810000011006968635600861837_);" d="M3058.4,909.4h-365.9
	c-45.3,0-82-36.7-82-82v-52.6c0-45.3,36.7-82,82-82h365.9c45.3,0,82,36.7,82,82v52.6C3140.4,872.7,3103.7,909.4,3058.4,909.4z"/>
<linearGradient id="SVGID_00000018945865907777044140000014413673933570746783_" gradientUnits="userSpaceOnUse" x1="3438.6685" y1="801.1653" x2="3968.5154" y2="801.1653">
	<stop  offset="0" style="stop-color:#0CA6B0"/>
	<stop  offset="1" style="stop-color:#0CC1B0"/>
</linearGradient>
<path style="fill:url(#SVGID_00000018945865907777044140000014413673933570746783_);" d="M3886.6,909.4h-365.9
	c-45.3,0-82-36.7-82-82v-52.6c0-45.3,36.7-82,82-82h365.9c45.3,0,82,36.7,82,82v52.6C3968.5,872.7,3931.8,909.4,3886.6,909.4z"/>
<path class="st6" d="M3886.6,1262.7h-365.9c-45.3,0-82-36.7-82-82v-52.6c0-45.3,36.7-82,82-82h365.9c45.3,0,82,36.7,82,82v52.6
	C3968.5,1226,3931.8,1262.7,3886.6,1262.7z"/>
<text transform="matrix(1 0 0 1 1004.5172 499.1531)"><tspan x="0" y="0" class="st18 st19 st20">Voting Active </tspan><tspan x="431.5" y="0" class="st18 st19 st21">(3 Days)</tspan></text>
<text transform="matrix(1 0 0 1 1901.1001 497.4584)" class="st18 st19 st20">Voting Ends</text>
<g>
	<text transform="matrix(0.95 0 0 1 345.8431 823.8101)" class="st22 st23 st24">Pending</text>
</g>
<g>
	<text transform="matrix(0.95 0 0 1 1190.6951 824.1636)" class="st22 st23 st24">Active</text>
</g>
<g>
	<text transform="matrix(0.95 0 0 1 2738.679 824.1636)" class="st22 st23 st24">Queued</text>
</g>
<g>
	<text transform="matrix(0.95 0 0 1 1898.105 824.1636)" class="st22 st23 st24">Succeeded</text>
</g>
<g>
	<g>
		<g>
			<g>
				<line class="st7" x1="805" y1="802.5" x2="836.6" y2="802.5"/>
			</g>
			<g>
				<line class="st7" x1="830.9" y1="802.5" x2="862.5" y2="802.5"/>
			</g>
			<g>
				<line class="st7" x1="856.7" y1="802.5" x2="888.3" y2="802.5"/>
			</g>
			<g>
				<line class="st7" x1="882.6" y1="802.5" x2="914.1" y2="802.5"/>
			</g>
			<g>
				<line class="st7" x1="928.5" y1="802.5" x2="908.4" y2="802.5"/>
				<polygon class="st8" points="937.1,802.5 911.3,819 911.3,786 				"/>
			</g>
		</g>
	</g>
</g>
<g>
	<g>
		<g>
			<g>
				<line class="st7" x1="1614" y1="802.5" x2="1645.6" y2="802.5"/>
			</g>
			<g>
				<line class="st7" x1="1639.8" y1="802.5" x2="1671.4" y2="802.5"/>
			</g>
			<g>
				<line class="st7" x1="1665.7" y1="802.5" x2="1697.2" y2="802.5"/>
			</g>
			<g>
				<line class="st7" x1="1691.5" y1="802.5" x2="1723.1" y2="802.5"/>
			</g>
			<g>
				<line class="st7" x1="1737.4" y1="802.5" x2="1717.3" y2="802.5"/>
				<polygon class="st8" points="1746.1,802.5 1720.2,819 1720.2,786 				"/>
			</g>
		</g>
	</g>
</g>
<g>
	<g>
		<g>
			<g>
				<line class="st9" x1="3427.8" y1="1049.2" x2="3438.7" y2="1075.1"/>
			</g>
			<g>
				<line class="st9" x1="3436.7" y1="1070.4" x2="3447.7" y2="1096.2"/>
			</g>
			<g>
				<line class="st9" x1="3445.7" y1="1091.5" x2="3456.6" y2="1117.3"/>
			</g>
			<g>
				<line class="st9" x1="3454.6" y1="1112.6" x2="3465.5" y2="1138.5"/>
			</g>
			<g>
				<line class="st9" x1="3463.6" y1="1133.8" x2="3474.5" y2="1159.6"/>
			</g>
			<g>
				<line class="st9" x1="3479.5" y1="1171.4" x2="3472.5" y2="1154.9"/>
				<polygon class="st8" points="3482.5,1178.4 3459.2,1163.4 3487.8,1151.2 				"/>
			</g>
		</g>
	</g>
</g>
<g>
	<polyline class="st10" points="3477.5,1170.1 3338.2,831.2 3230.6,831.2 	"/>
</g>
<g>
	<g>
		<g>
			<line class="st7" x1="2421.6" y1="802.5" x2="2453.3" y2="802.5"/>
		</g>
		<g>
			<line class="st7" x1="2447.5" y1="802.5" x2="2479.3" y2="802.5"/>
		</g>
		<g>
			<line class="st7" x1="2473.5" y1="802.5" x2="2505.3" y2="802.5"/>
		</g>
		<g>
			<line class="st7" x1="2499.5" y1="802.5" x2="2531.3" y2="802.5"/>
		</g>
		<g>
			<line class="st7" x1="2545.7" y1="802.5" x2="2525.5" y2="802.5"/>
			<polygon class="st8" points="2554.4,802.5 2528.4,819 2528.4,786 			"/>
		</g>
	</g>
</g>
<g>
	<g>
		<g>
			<line class="st7" x1="3231.8" y1="802.5" x2="3263.6" y2="802.5"/>
		</g>
		<g>
			<line class="st7" x1="3257.8" y1="802.5" x2="3289.6" y2="802.5"/>
		</g>
		<g>
			<line class="st7" x1="3283.8" y1="802.5" x2="3315.6" y2="802.5"/>
		</g>
		<g>
			<line class="st7" x1="3309.8" y1="802.5" x2="3341.6" y2="802.5"/>
		</g>
		<g>
			<line class="st7" x1="3356" y1="802.5" x2="3335.8" y2="802.5"/>
			<polygon class="st8" points="3364.7,802.5 3338.7,819 3338.7,786 			"/>
		</g>
	</g>
</g>
<g>
	<text transform="matrix(0.95 0 0 1 3574.8064 1185.6445)" class="st22 st23 st24">Expired</text>
</g>
<g>
	<text transform="matrix(0.95 0 0 1 3544.6338 822.1145)" class="st22 st23 st24">Executed</text>
</g>
<text transform="matrix(1 0 0 1 228.6529 497.4589)" class="st18 st19 st20">Proposal Created</text>
<text transform="matrix(1 0 0 1 2951.9011 513.8408)"><tspan x="0" y="0" class="st18 st19 st25">Timelock </tspan><tspan x="390.9" y="0" class="st18 st19 st21">(2+Days)</tspan></text>
<g>
	<path class="st11" d="M883.5,365.1c-0.2,105.8-0.2,184.5,0,290.2"/>
	<path class="st11" d="M1688.7,365.1c-0.4,105.8-0.4,184.5,0,290.2"/>
	<path class="st11" d="M2513.4,365.1c-0.4,105.8-0.4,184.5,0,290.2"/>
</g>
<g>
	<path class="st11" d="M883.5,970c-0.2,105.8-0.2,184.5,0,290.2"/>
	<path class="st11" d="M1688.7,970c-0.4,105.8-0.4,184.5,0,290.2"/>
	<path class="st11" d="M2513.4,970c-0.4,105.8-0.4,184.5,0,290.2"/>
</g>
<line class="st0" x1="3703.6" y1="1262.7" x2="3703.6" y2="1595.1"/>
<path class="st6" d="M2268.6,1293.9h-365.9c-45.3,0-82-36.7-82-82v-52.6c0-45.3,36.7-82,82-82h365.9c45.3,0,82,36.7,82,82v52.6
	C2350.6,1257.2,2313.9,1293.9,2268.6,1293.9z"/>
<g>
	<text transform="matrix(0.95 0 0 1 1929.386 1208.3003)" class="st22 st23 st24">Defeated</text>
</g>
<g>
	<g>
		<g>
			<g>
				<line class="st7" x1="1783.3" y1="973.4" x2="1795.3" y2="1002.4"/>
			</g>
			<g>
				<line class="st7" x1="1793.1" y1="997.1" x2="1805.2" y2="1026.2"/>
			</g>
			<g>
				<line class="st7" x1="1803" y1="1020.9" x2="1815" y2="1049.9"/>
			</g>
			<g>
				<line class="st7" x1="1812.8" y1="1044.6" x2="1824.8" y2="1073.7"/>
			</g>
			<g>
				<line class="st7" x1="1822.6" y1="1068.4" x2="1834.7" y2="1097.4"/>
			</g>
			<g>
				<line class="st7" x1="1832.5" y1="1092.1" x2="1844.5" y2="1121.2"/>
			</g>
			<g>
				<line class="st7" x1="1842.3" y1="1115.9" x2="1854.3" y2="1144.9"/>
			</g>
			<g>
				<line class="st7" x1="1852.1" y1="1139.6" x2="1864.2" y2="1168.7"/>
			</g>
			<g>
				<line class="st7" x1="1869.6" y1="1181.8" x2="1862" y2="1163.4"/>
				<polygon class="st8" points="1872.9,1189.8 1847.8,1172.3 1878.3,1159.7 				"/>
			</g>
		</g>
	</g>
</g>
<g>
	<polyline class="st10" points="1863.6,1170.1 1724.4,831.2 1616.8,831.2 	"/>
</g>
<g>
	<g>
		<path class="st6" d="M669.1,1692.1c0,9.8-5.2,17.8-11.6,17.8H323.7c-6.4,0-11.6-8-11.6-17.8v-75.5c0-9.8,5.2-17.8,11.6-17.8h333.9
			c6.4,0,11.6,8,11.6,17.8V1692.1z"/>
	</g>
	<text transform="matrix(1 0 0 1 390.8255 1666.9539)" class="st26 st27">Canceled</text>
</g>
<g>
	<g>
		<path class="st6" d="M1473.4,1692.1c0,9.8-5.2,17.8-11.5,17.8H1128c-6.4,0-11.6-8-11.6-17.8v-75.5c0-9.8,5.2-17.8,11.6-17.8h333.9
			c6.4,0,11.5,8,11.5,17.8V1692.1z"/>
	</g>
	<text transform="matrix(1 0 0 1 1195.0898 1666.9539)" class="st26 st27">Canceled</text>
</g>
<g>
	<g>
		<path class="st6" d="M2264.1,1692.1c0,9.8-5.2,17.8-11.6,17.8h-333.9c-6.4,0-11.6-8-11.6-17.8v-75.5c0-9.8,5.2-17.8,11.6-17.8
			h333.9c6.4,0,11.6,8,11.6,17.8V1692.1z"/>
	</g>
	<text transform="matrix(1 0 0 1 1985.8594 1666.9539)" class="st26 st27">Canceled</text>
</g>
<g>
	<g>
		<path class="st6" d="M3054,1692.1c0,9.8-5.2,17.8-11.6,17.8h-333.9c-6.4,0-11.6-8-11.6-17.8v-75.5c0-9.8,5.2-17.8,11.6-17.8h333.9
			c6.4,0,11.6,8,11.6,17.8V1692.1z"/>
	</g>
	<text transform="matrix(1 0 0 1 2775.665 1666.9539)" class="st26 st27">Canceled</text>
</g>
<g>
	<g>
		<path class="st6" d="M3882.1,1692.1c0,9.8-5.2,17.8-11.6,17.8h-333.9c-6.4,0-11.6-8-11.6-17.8v-75.5c0-9.8,5.2-17.8,11.6-17.8
			h333.9c6.4,0,11.6,8,11.6,17.8V1692.1z"/>
	</g>
	<text transform="matrix(1 0 0 1 3603.7964 1666.9539)" class="st26 st27">Canceled</text>
</g>
<polygon class="st12" points="512.4,1580.9 490.6,1602.7 468.8,1580.9 "/>
<polygon class="st12" points="1316.7,1581.7 1294.9,1603.5 1273.1,1581.7 "/>
<polygon class="st12" points="2107.4,1587.9 2085.7,1609.7 2063.9,1587.9 "/>
<polygon class="st12" points="2897.2,1587.9 2875.5,1609.7 2853.7,1587.9 "/>
<polygon class="st12" points="3725.4,1582 3703.6,1603.8 3681.8,1582 "/>
</svg>
