<svg xmlns="http://www.w3.org/2000/svg" width="497.135" height="125.892" viewBox="0 0 497.135 125.892">
  <g id="Group_21044" data-name="Group 21044" transform="translate(1336.135 -1820)">
    <g id="Group_148" data-name="Group 148" transform="translate(-1336.135 1823.378)">
      <g id="Group_22" data-name="Group 22" transform="translate(0 0)">
        <path id="Path_481" data-name="Path 481" d="M122.12,29.8a61.257,61.257,0,1,0,61.258,61.256A61.326,61.326,0,0,0,122.12,29.8Zm0,114.18a52.923,52.923,0,1,1,52.922-52.924A52.983,52.983,0,0,1,122.12,143.979Z" transform="translate(-60.864 -29.799)" fill="#bbb"/>
        <path id="Path_482" data-name="Path 482" d="M94.078,50.13,78.321,92.976H87.5L103.253,50.13Z" transform="translate(-44.118 -10.296)" fill="#bbb"/>
        <path id="Path_483" data-name="Path 483" d="M112.058,50.13l-6.878,18.7H91.11l-2.565,6.83h14.123L96.3,92.976h9.175l6.368-17.314h4.519l2.564-6.83h-4.571l6.878-18.7Z" transform="translate(-34.31 -10.296)" fill="#bbb"/>
      </g>
      <g id="Group_23" data-name="Group 23" transform="translate(160.139 31.707)">
        <path id="Path_484" data-name="Path 484" d="M172.531,69.019h-22.7V45.982H142.6v54.556h7.229V75.621h22.7v24.918h7.229V45.982h-7.229Z" transform="translate(-142.598 -45.982)" fill="#bbb"/>
        <path id="Path_485" data-name="Path 485" d="M184.5,83.507,173,53.581h-7.263L181.2,93.409l-.131.458c-2.339,6.944-4.759,7.669-9.718,7.669H171.1v6.6h.245c11.313,0,13.346-4.479,16.53-13.8l13.789-40.431.112-.325H194.6Z" transform="translate(-120.398 -38.693)" fill="#bbb"/>
        <path id="Path_486" data-name="Path 486" d="M204.888,53.261c-4.708,0-8.125,1.336-10.412,4.077v-3.45h-6.759v54.556h6.759V90.1c2.286,2.743,5.7,4.077,10.412,4.077,9.967,0,15.915-6.71,15.915-17.953V71.059C220.8,59.915,214.855,53.261,204.888,53.261Zm-.627,6.132c6.217,0,9.785,4.252,9.785,11.665v5.171c0,7.181-3.842,11.822-9.785,11.822-8.515,0-9.785-7.408-9.785-11.822V70.508C194.477,63.549,198.134,59.394,204.261,59.394Z" transform="translate(-99.317 -39)" fill="#bbb"/>
        <path id="Path_487" data-name="Path 487" d="M224.2,53.261c-10.163,0-15.76,6.321-15.76,17.8v5.171c0,11.074,6.52,17.953,17.014,17.953,7.065,0,11.229-2,13.926-6.7l.11-.192-5.261-3.734-.133.237c-1.7,2.988-4.422,4.263-9.112,4.263-6.127,0-9.785-4.42-9.785-11.822v-.852h24.761V71.059C239.958,59.415,234.509,53.261,224.2,53.261Zm0,6.132c5.527,0,8.523,3.366,8.911,10.01H215.214C215.684,62.76,218.705,59.394,224.2,59.394Z" transform="translate(-79.441 -39)" fill="#bbb"/>
        <path id="Path_488" data-name="Path 488" d="M245.44,53.261c-4.122,0-6.957,1.242-8.846,3.889V53.888h-6.757V93.557h6.757V68.786c0-5.525,3.272-9.236,8.139-9.236a7.215,7.215,0,0,1,6.385,3.19l.141.2,5.727-4.044-.141-.2C254.173,54.936,250.656,53.261,245.44,53.261Z" transform="translate(-58.913 -39)" fill="#bbb"/>
        <path id="Path_489" data-name="Path 489" d="M263.489,53.261c-5.165,0-8.121,1.117-10.255,3.938V53.888h-6.757V93.557h6.757V68.865a8.912,8.912,0,0,1,9.314-9.314c5.927,0,8.688,2.984,8.688,9.393V93.557H278V68.865C278,55.969,270.108,53.261,263.489,53.261Z" transform="translate(-42.951 -39)" fill="#bbb"/>
        <path id="Path_490" data-name="Path 490" d="M283.156,53.261c-10.163,0-15.76,6.321-15.76,17.8v5.171c0,11.074,6.518,17.953,17.014,17.953,7.063,0,11.229-2,13.925-6.7l.112-.192-5.261-3.734-.135.237c-1.695,2.988-4.42,4.263-9.111,4.263-6.127,0-9.785-4.42-9.785-11.822v-.852h24.759V71.059C298.915,59.415,293.466,53.261,283.156,53.261Zm0,6.132c5.525,0,8.523,3.366,8.909,10.01H274.171C274.641,62.76,277.664,59.394,283.156,59.394Z" transform="translate(-22.884 -39)" fill="#bbb"/>
        <path id="Path_491" data-name="Path 491" d="M298.809,49.182h-6.758V57.8h-5.016v6.131h5.016V85.156c0,8.862,3.407,12.314,12.155,12.314h3.615V91.024H304.44c-5.121,0-5.631-2.151-5.631-7.433V63.931h9.013V57.8h-9.013Z" transform="translate(-4.044 -42.912)" fill="#bbb"/>
      </g>
    </g>
    <text id="_." data-name="." transform="translate(-867 1911)" fill="#bbb" font-size="100" font-family="ArialMT, Arial"><tspan x="0" y="0">.</tspan></text>
  </g>
</svg>
