<svg id="Layer_1" data-name="Layer 1" xmlns="http://www.w3.org/2000/svg" viewBox="0 0 1675.25 444.96"><path d="M197,98.85a124,124,0,1,0,124,124A124,124,0,0,0,197,98.85Zm0,231.07a107.1,107.1,0,1,1,107.1-107.1A107.1,107.1,0,0,1,197,329.92Z"/><polygon points="174.18 179.46 142.3 266.17 160.87 266.17 192.75 179.46 174.18 179.46"/><polygon points="230.42 179.46 216.5 217.31 188.03 217.31 182.83 231.13 211.41 231.13 198.53 266.17 217.09 266.17 229.98 231.13 239.13 231.13 244.31 217.31 235.06 217.31 248.98 179.47 230.42 179.46"/><polygon points="419.26 209.64 373.32 209.64 373.32 163.02 358.69 163.02 358.69 273.42 373.32 273.42 373.32 223 419.26 223 419.26 273.42 433.89 273.42 433.89 163.02 419.26 163.02 419.26 209.64"/><path d="M488.41,253.71l-23.27-60.56h-14.7l31.29,80.59-.26.93c-4.74,14.05-9.63,15.52-19.67,15.52h-.51v13.36h.5c22.89,0,27-9.07,33.45-27.93l27.9-81.82.23-.66H508.85Z"/><path d="M572.33,191.88c-9.53,0-16.44,2.7-21.07,8.25v-7H537.58v110.4h13.68V266.43c4.63,5.55,11.54,8.25,21.07,8.25,20.17,0,32.21-13.58,32.21-36.33V227.89C604.53,205.34,592.5,191.88,572.33,191.88Zm-1.27,12.41c12.58,0,19.8,8.6,19.8,23.6v10.47c0,14.53-7.77,23.92-19.8,23.92-17.23,0-19.8-15-19.8-23.92V226.78c0-14.08,7.4-22.49,19.8-22.49Z"/><path d="M651.63,191.88c-20.56,0-31.89,12.79-31.89,36v10.46c0,22.41,13.19,36.33,34.43,36.33,14.3,0,22.73-4,28.18-13.56l.23-.38-10.65-7.56-.27.48c-3.44,6.05-8.95,8.63-18.44,8.63-12.4,0-19.8-9-19.8-23.93v-1.72h50.11v-8.76C683.52,204.33,672.5,191.88,651.63,191.88Zm0,12.41c11.19,0,17.25,6.81,18,20.25H633.45c.95-13.44,7.06-20.25,18.18-20.25Z"/><path d="M736.16,191.88c-8.34,0-14.08,2.51-17.9,7.87v-6.6H704.58v80.27h13.68V223.29c0-11.18,6.62-18.69,16.47-18.69a14.63,14.63,0,0,1,12.92,6.46l.28.4,11.59-8.18-.28-.4C753.83,195.27,746.71,191.88,736.16,191.88Z"/><path d="M805,191.88c-10.45,0-16.43,2.26-20.75,8v-6.7H770.56v80.27h13.67v-50a18,18,0,0,1,18.85-18.84c12,0,17.58,6,17.58,19v49.81h13.69v-50C834.35,197.36,818.38,191.88,805,191.88Z"/><path d="M885.39,191.88c-20.56,0-31.89,12.79-31.89,36v10.46c0,22.41,13.19,36.33,34.43,36.33,14.29,0,22.73-4,28.18-13.56l.23-.38-10.65-7.56-.27.48c-3.43,6.05-8.95,8.63-18.44,8.63-12.4,0-19.8-9-19.8-23.93v-1.72h50.1v-8.76C917.29,204.33,906.26,191.88,885.39,191.88Zm0,12.41c11.18,0,17.25,6.81,18,20.25H867.21c.95-13.44,7.07-20.25,18.18-20.25Z"/><path d="M955.2,175.71H941.52v17.44H931.37v12.4h10.15v43c0,17.93,6.9,24.91,24.6,24.91h7.31v-13h-6.84c-10.36,0-11.39-4.35-11.39-15V205.55h18.24v-12.4H955.2Z"/><rect x="991.33" y="251.76" width="19.66" height="19.66"/><path d="M1040.73,231.34v42.08H1027V163h35.2c25.45,0,40.17,12.8,40.17,34.24,0,21.29-14.56,34.09-40.17,34.09Zm21.44-12.48c18.73,0,26.41-8,26.41-21.61s-7.68-21.76-26.41-21.76h-21.44v43.37Z"/><path d="M1164.43,210.7c-3.36-4.64-7.52-6.72-13.44-6.72-9.76,0-17.12,7.36-17.12,19.36v50.08h-12.8v-80h12.8v7.84c3.36-5.6,8.8-9.12,18.56-9.12,10.89,0,17.77,3.68,22.89,10.88Z"/><path d="M1249.89,238.54c0,20.8-10.24,36.16-33.28,36.16-21.29,0-33.29-14.08-33.29-36.16V228c0-22.73,12.32-35.85,33.29-35.85,21.12,0,33.28,13,33.28,35.85Zm-12.8,0V228c0-15.2-7.36-24.32-20.48-24.32s-20.49,9.28-20.49,24.32v10.56c0,13.76,5.76,24.64,20.49,24.64C1230.21,263.18,1237.09,252.14,1237.09,238.54Z"/><path d="M1262.86,193.41h10.24v-17.6h12.8v17.6h18.4v11.52h-18.4v40.65c0,11,1.28,15.68,12,15.68h6.4v12.16h-6.88c-18.88,0-24.32-8-24.32-24.64V204.93h-10.24Z"/><path d="M1386.08,238.54c0,20.8-10.25,36.16-33.29,36.16-21.28,0-33.28-14.08-33.28-36.16V228c0-22.73,12.32-35.85,33.28-35.85,21.12,0,33.29,13,33.29,35.85Zm-12.81,0V228c0-15.2-7.36-24.32-20.48-24.32s-20.48,9.28-20.48,24.32v10.56c0,13.76,5.76,24.64,20.48,24.64C1366.39,263.18,1373.27,252.14,1373.27,238.54Z"/><path d="M1464.33,261.26c-5,9.28-14.72,13.44-27.68,13.44-21.93,0-34.57-14.08-34.57-36.16V228c0-22.73,13-35.85,34.57-35.85,12,0,21.92,4.32,27.68,12.48l-10.08,7c-3.52-5.12-10.24-8-17.6-8-13.77,0-21.77,9.28-21.77,24.32v10.56c0,13.76,6.4,24.64,21.77,24.64,7.52,0,14.4-2.56,17.76-9Z"/><path d="M1542.9,238.54c0,20.8-10.24,36.16-33.28,36.16-21.28,0-33.29-14.08-33.29-36.16V228c0-22.73,12.33-35.85,33.29-35.85,21.12,0,33.28,13,33.28,35.85Zm-12.8,0V228c0-15.2-7.36-24.32-20.48-24.32s-20.49,9.28-20.49,24.32v10.56c0,13.76,5.77,24.64,20.49,24.64C1523.22,263.18,1530.1,252.14,1530.1,238.54Z"/><path d="M1562.91,163h12.8v82.57c0,8.64.48,16,13.6,16v11.84c-20.16,0-26.4-8-26.4-24.64Z"/></svg>